<svg width="169" height="304" viewBox="0 0 169 304" fill="none" xmlns="http://www.w3.org/2000/svg">
<path d="M14.9558 45.9807C9.43648 45.7828 4.88387 41.0038 6.91774 35.9163C15.0012 15.6964 47.1619 1.49313 85.4152 2.86461C123.668 4.23608 155.457 20.7321 163.044 41.5138C164.952 46.7427 160.288 51.1912 154.769 50.9933L14.9558 45.9807Z" fill="#DF619C" fill-opacity="0.44"/>
<path d="M7.3823 36.1116C11.3578 26.1675 21.2891 17.6344 35.058 11.7546C48.8157 5.87957 66.3457 2.6811 85.4091 3.36457C104.473 4.04804 121.91 8.50018 135.513 15.3562C149.128 22.2177 158.844 31.4552 162.575 41.6757C163.458 44.0954 162.827 46.3229 161.322 47.9432C159.806 49.5747 157.4 50.5875 154.775 50.4933L14.9618 45.4807C12.3365 45.3866 9.95684 44.2023 8.482 42.4636C7.01724 40.7367 6.44108 38.466 7.3823 36.1116Z" stroke="black" stroke-opacity="0.02"/>
<path d="M164.312 83.9297C159.829 91.2952 149.819 96.8294 135.728 100.514C121.662 104.192 103.636 105.999 83.2648 106C63.8724 105.331 46.1183 102.391 32.0925 97.6206C18.0407 92.8409 7.82921 86.2569 3.38187 78.372C2.12828 76.1495 2.56155 74.0123 3.95469 72.4185C5.36541 70.8047 7.76705 69.7538 10.3916 69.8443L157.459 74.9112C160.084 75.0016 162.469 76.2193 163.853 77.933C165.219 79.6256 165.612 81.7943 164.312 83.9297Z" fill="#DF619C" fill-opacity="0.44" stroke="#FFFEFE"/>
<ellipse cx="79.4478" cy="12.8698" rx="79.4478" ry="12.8698" transform="matrix(0.999709 0.0241417 -0.00816399 0.999967 5.58153 46.3414)" fill="white"/>
<path d="M163.826 63.0347C163.82 63.6987 163.399 64.4275 162.384 65.2019C161.377 65.9703 159.863 66.7203 157.868 67.4342C153.884 68.8599 148.096 70.1004 140.913 71.0895C126.554 73.0667 106.714 74.0273 84.8001 73.4981C62.8858 72.9689 43.0694 71.0506 28.7491 68.3809C21.5849 67.0453 15.8194 65.5258 11.8597 63.9082C9.87725 63.0984 8.37673 62.2755 7.38236 61.4588C6.38009 60.6357 5.97089 59.8868 5.97631 59.2229C5.98173 58.5589 6.403 57.8301 7.41831 57.0556C8.42561 56.2873 9.93898 55.5372 11.9339 54.8234C15.9184 53.3977 21.7065 52.1572 28.8896 51.168C43.2479 49.1909 63.0878 48.2302 85.0021 48.7594C106.916 49.2886 126.733 51.2069 141.053 53.8766C148.217 55.2122 153.983 56.7318 157.942 58.3493C159.925 59.1592 161.425 59.9821 162.42 60.7987C163.422 61.6219 163.831 62.3708 163.826 63.0347Z" stroke="black" stroke-opacity="0.3"/>
<ellipse cx="61" cy="17.5" rx="9" ry="12.5" fill="#FFFEFE"/>
<ellipse cx="104" cy="17.5" rx="9" ry="12.5" fill="#FFFEFE"/>
<ellipse cx="61" cy="21.5" rx="5" ry="8.5" fill="black"/>
<ellipse cx="104" cy="21.5" rx="5" ry="8.5" fill="black"/>
<path d="M78.8008 28.6523C81.1707 35.2397 86.1578 35.23 89.4694 28.4031" stroke="black" stroke-width="3" stroke-linecap="round"/>
<path d="M16.0591 242.481C13.4337 242.387 11.0541 241.202 9.57926 239.464C8.1145 237.737 7.53834 235.466 8.47956 233.112C12.455 223.167 22.3863 214.634 36.1553 208.755C49.9129 202.88 67.4429 199.681 86.5064 200.365C105.57 201.048 123.007 205.5 136.61 212.356C150.225 219.218 159.941 228.455 163.672 238.676C164.555 241.095 163.925 243.323 162.419 244.943C160.904 246.575 158.497 247.587 155.872 247.493L16.0591 242.481Z" fill="#72AFF0" fill-opacity="0.44" stroke="#FFFEFE"/>
<path d="M159 268.911C161.625 269.002 164.01 270.219 165.394 271.933C166.76 273.626 167.153 275.794 165.853 277.93C161.37 285.295 151.36 290.829 137.269 294.514C123.204 298.192 105.177 299.999 84.8058 300C65.4135 299.331 47.6594 296.391 33.6336 291.621C19.5818 286.841 9.37029 280.257 4.92295 272.372C3.66936 270.149 4.10262 268.012 5.49575 266.419C6.90648 264.805 9.30813 263.754 11.9327 263.844L159 268.911Z" fill="#72AFF0" fill-opacity="0.44" stroke="#FFFEFE"/>
<ellipse cx="79.4478" cy="12.8698" rx="79.4478" ry="12.8698" transform="matrix(0.999709 0.0241417 -0.00816399 0.999967 7.1226 240.341)" fill="white"/>
<path d="M165.367 257.035C165.362 257.699 164.94 258.428 163.925 259.202C162.918 259.97 161.404 260.72 159.409 261.434C155.425 262.86 149.637 264.1 142.454 265.09C128.095 267.067 108.255 268.027 86.3412 267.498C64.4269 266.969 44.6105 265.051 30.2901 262.381C23.126 261.045 17.3605 259.526 13.4008 257.908C11.4183 257.098 9.9178 256.276 8.92344 255.459C7.92117 254.636 7.51197 253.887 7.51739 253.223C7.52281 252.559 7.94408 251.83 8.95939 251.056C9.96669 250.287 11.4801 249.537 13.475 248.823C17.4595 247.398 23.2475 246.157 30.4307 245.168C44.789 243.191 64.6289 242.23 86.5432 242.759C108.457 243.289 128.274 245.207 142.594 247.877C149.758 249.212 155.524 250.732 159.484 252.349C161.466 253.159 162.967 253.982 163.961 254.799C164.963 255.622 165.372 256.371 165.367 257.035Z" stroke="black" stroke-opacity="0.3"/>
<ellipse cx="63" cy="211.5" rx="9" ry="12.5" fill="#FFFEFE"/>
<ellipse cx="105" cy="211.5" rx="9" ry="12.5" fill="#FFFEFE"/>
<ellipse cx="63" cy="215.5" rx="5" ry="8.5" fill="black"/>
<ellipse cx="105" cy="215.5" rx="5" ry="8.5" fill="black"/>
<path d="M80.3418 222.652C82.7118 229.24 87.6989 229.23 91.0105 222.403" stroke="black" stroke-width="3" stroke-linecap="round"/>
<path d="M8.37473 233.112C12.3502 223.167 22.2815 214.634 36.0504 208.755C49.8081 202.88 67.3381 199.681 86.4016 200.365C105.465 201.048 122.902 205.5 136.506 212.356C150.12 219.218 159.836 228.455 163.567 238.676C164.45 241.095 163.82 243.323 162.314 244.943C160.799 246.575 158.392 247.587 155.767 247.493L15.9543 242.481C13.3289 242.387 10.9493 241.202 9.47444 239.464C8.00968 237.737 7.43351 235.466 8.37473 233.112Z" fill="#72AFF0" fill-opacity="0.44" stroke="black"/>
<path d="M165.748 277.93C161.265 285.295 151.256 290.829 137.164 294.514C123.099 298.192 105.072 299.999 84.701 300C65.3086 299.331 47.5546 296.391 33.5288 291.621C19.477 286.841 9.26548 280.257 4.81814 272.372C3.56455 270.149 3.99781 268.012 5.39096 266.419C6.80167 264.805 9.20331 263.754 11.8279 263.844L158.895 268.911C161.52 269.002 163.906 270.219 165.289 271.933C166.655 273.626 167.048 275.794 165.748 277.93Z" fill="#72AFF0" fill-opacity="0.44" stroke="black"/>
<path d="M165.262 257.035C165.257 257.699 164.835 258.428 163.82 259.202C162.813 259.97 161.299 260.72 159.305 261.434C155.32 262.86 149.532 264.1 142.349 265.09C127.991 267.067 108.151 268.027 86.2364 267.498C64.3221 266.969 44.5057 265.051 30.1853 262.381C23.0212 261.045 17.2557 259.526 13.296 257.908C11.3135 257.098 9.81299 256.276 8.81863 255.459C7.81636 254.636 7.40716 253.887 7.41258 253.223C7.418 252.559 7.83926 251.83 8.85458 251.056C9.86188 250.287 11.3752 249.537 13.3702 248.823C17.3547 247.398 23.1427 246.157 30.3259 245.168C44.6842 243.191 64.5241 242.23 86.4383 242.759C108.353 243.289 128.169 245.207 142.489 247.877C149.654 249.212 155.419 250.732 159.379 252.349C161.361 253.159 162.862 253.982 163.856 254.799C164.858 255.622 165.268 256.371 165.262 257.035Z" fill="white" stroke="black"/>
<path d="M70.5 211.5C70.5 214.865 69.5717 217.889 68.0969 220.058C66.6204 222.229 64.6326 223.5 62.5 223.5C60.3674 223.5 58.3796 222.229 56.9031 220.058C55.4283 217.889 54.5 214.865 54.5 211.5C54.5 208.135 55.4283 205.111 56.9031 202.942C58.3796 200.771 60.3674 199.5 62.5 199.5C64.6326 199.5 66.6204 200.771 68.0969 202.942C69.5717 205.111 70.5 208.135 70.5 211.5Z" fill="#FFFEFE" stroke="black"/>
<path d="M113.5 211.5C113.5 214.859 112.519 217.879 110.958 220.047C109.397 222.215 107.284 223.5 105 223.5C102.716 223.5 100.603 222.215 99.0418 220.047C97.4809 217.879 96.5 214.859 96.5 211.5C96.5 208.141 97.4809 205.121 99.0418 202.953C100.603 200.785 102.716 199.5 105 199.5C107.284 199.5 109.397 200.785 110.958 202.953C112.519 205.121 113.5 208.141 113.5 211.5Z" fill="#FFFEFE" stroke="black"/>
<ellipse cx="62.5" cy="215.5" rx="4.5" ry="8.5" fill="black"/>
<ellipse cx="105" cy="215.5" rx="5" ry="8.5" fill="black"/>
<path d="M80.237 222.652C82.6069 229.24 87.5941 229.23 90.9057 222.403" stroke="black" stroke-width="3" stroke-linecap="round"/>
<path d="M15.0667 145.481C12.4413 145.387 10.0616 144.202 8.58682 142.464C7.12206 140.737 6.54589 138.466 7.48711 136.112C11.4626 126.167 21.3939 117.634 35.1628 111.755C48.9205 105.88 66.4505 102.681 85.5139 103.365C104.577 104.048 122.015 108.5 135.618 115.356C149.233 122.218 158.948 131.455 162.679 141.676C163.563 144.095 162.932 146.323 161.427 147.943C159.911 149.575 157.505 150.587 154.879 150.493L15.0667 145.481Z" fill="#C199E6" fill-opacity="0.44" stroke="#FFFEFE"/>
<path d="M158.008 171.911C160.632 172.002 163.018 173.219 164.401 174.933C165.767 176.626 166.16 178.794 164.86 180.93C160.377 188.295 150.368 193.829 136.276 197.514C122.211 201.192 104.184 202.999 83.8134 203C64.421 202.331 46.6669 199.391 32.6411 194.621C18.5894 189.841 8.37784 183.257 3.9305 175.372C2.67691 173.149 3.11018 171.012 4.50331 169.419C5.91404 167.805 8.31568 166.754 10.9403 166.844L158.008 171.911Z" fill="#C199E6" fill-opacity="0.44" stroke="#FFFEFE"/>
<ellipse cx="79.4478" cy="12.8698" rx="79.4478" ry="12.8698" transform="matrix(0.999709 0.0241417 -0.00816399 0.999967 6.13017 143.341)" fill="white"/>
<path d="M164.375 160.035C164.369 160.699 163.948 161.428 162.933 162.202C161.925 162.97 160.412 163.72 158.417 164.434C154.432 165.86 148.644 167.1 141.461 168.09C127.103 170.067 107.263 171.027 85.3488 170.498C63.4345 169.969 43.6181 168.051 29.2977 165.381C22.1336 164.045 16.368 162.526 12.4084 160.908C10.4259 160.098 8.92537 159.276 7.93101 158.459C6.92874 157.636 6.51954 156.887 6.52496 156.223C6.53038 155.559 6.95164 154.83 7.96696 154.056C8.97426 153.287 10.4876 152.537 12.4825 151.823C16.4671 150.398 22.2551 149.157 29.4382 148.168C43.7965 146.191 63.6365 145.23 85.5507 145.759C107.465 146.289 127.281 148.207 141.602 150.877C148.766 152.212 154.531 153.732 158.491 155.349C160.474 156.159 161.974 156.982 162.968 157.799C163.971 158.622 164.38 159.371 164.375 160.035Z" stroke="black" stroke-opacity="0.3"/>
<ellipse cx="62" cy="114.5" rx="9" ry="12.5" fill="#FFFEFE"/>
<ellipse cx="104" cy="114.5" rx="9" ry="12.5" fill="#FFFEFE"/>
<ellipse cx="62" cy="118.5" rx="5" ry="8.5" fill="black"/>
<ellipse cx="104" cy="118.5" rx="5" ry="8.5" fill="black"/>
<path d="M79.3494 125.652C81.7193 132.24 86.7064 132.23 90.0181 125.403" stroke="black" stroke-width="3" stroke-linecap="round"/>
<path d="M7.3823 136.112C11.3578 126.167 21.2891 117.634 35.058 111.755C48.8157 105.88 66.3457 102.681 85.4091 103.365C104.473 104.048 121.91 108.5 135.513 115.356C149.128 122.218 158.844 131.455 162.575 141.676C163.458 144.095 162.827 146.323 161.322 147.943C159.806 149.575 157.4 150.587 154.775 150.493L14.9618 145.481C12.3365 145.387 9.95684 144.202 8.482 142.464C7.01724 140.737 6.44108 138.466 7.3823 136.112Z" fill="#C199E6" fill-opacity="0.44" stroke="black"/>
<path d="M164.756 180.93C160.272 188.295 150.263 193.829 136.171 197.514C122.106 201.192 104.079 202.999 83.7086 203C64.3162 202.331 46.5621 199.391 32.5363 194.621C18.4846 189.841 8.27303 183.257 3.82569 175.372C2.5721 173.149 3.00536 171.012 4.39851 169.419C5.80922 167.805 8.21087 166.754 10.8354 166.844L157.903 171.911C160.527 172.002 162.913 173.219 164.296 174.933C165.663 176.626 166.055 178.794 164.756 180.93Z" fill="#C199E6" fill-opacity="0.44" stroke="black"/>
<path d="M164.27 160.035C164.264 160.699 163.843 161.428 162.828 162.202C161.82 162.97 160.307 163.72 158.312 164.434C154.328 165.86 148.54 167.1 141.356 168.09C126.998 170.067 107.158 171.027 85.2439 170.498C63.3297 169.969 43.5132 168.051 29.1929 165.381C22.0287 164.045 16.2632 162.526 12.3035 160.908C10.3211 160.098 8.82054 159.276 7.82618 158.459C6.82391 157.636 6.41471 156.887 6.42013 156.223C6.42555 155.559 6.84682 154.83 7.86213 154.056C8.86943 153.287 10.3828 152.537 12.3777 151.823C16.3622 150.398 22.1503 149.157 29.3334 148.168C43.6917 146.191 63.5316 145.23 85.4459 145.759C107.36 146.289 127.177 148.207 141.497 150.877C148.661 152.212 154.427 153.732 158.386 155.349C160.369 156.159 161.869 156.982 162.864 157.799C163.866 158.622 164.275 159.371 164.27 160.035Z" fill="white" stroke="black"/>
<path d="M69.5 114.5C69.5 117.865 68.5717 120.889 67.0969 123.058C65.6204 125.229 63.6326 126.5 61.5 126.5C59.3674 126.5 57.3796 125.229 55.9031 123.058C54.4283 120.889 53.5 117.865 53.5 114.5C53.5 111.135 54.4283 108.111 55.9031 105.942C57.3796 103.771 59.3674 102.5 61.5 102.5C63.6326 102.5 65.6204 103.771 67.0969 105.942C68.5717 108.111 69.5 111.135 69.5 114.5Z" fill="#FFFEFE" stroke="black"/>
<path d="M112.5 114.5C112.5 117.859 111.519 120.879 109.958 123.047C108.397 125.215 106.284 126.5 104 126.5C101.716 126.5 99.6032 125.215 98.0418 123.047C96.4809 120.879 95.5 117.859 95.5 114.5C95.5 111.141 96.4809 108.121 98.0418 105.953C99.6032 103.785 101.716 102.5 104 102.5C106.284 102.5 108.397 103.785 109.958 105.953C111.519 108.121 112.5 111.141 112.5 114.5Z" fill="#FFFEFE" stroke="black"/>
<ellipse cx="61.5" cy="118.5" rx="4.5" ry="8.5" fill="black"/>
<ellipse cx="104" cy="118.5" rx="5" ry="8.5" fill="black"/>
<path d="M79.2446 125.652C81.6145 132.24 86.6016 132.23 89.9132 125.403" stroke="black" stroke-width="3" stroke-linecap="round"/>
<path d="M14.9618 48.4807C12.3365 48.3866 9.95684 47.2023 8.482 45.4636C7.01724 43.7367 6.44108 41.466 7.3823 39.1116C11.3578 29.1675 21.2891 20.6344 35.058 14.7546C48.8157 8.87957 66.3457 5.6811 85.4091 6.36457C104.473 7.04804 121.91 11.5002 135.513 18.3562C149.128 25.2177 158.844 34.4552 162.575 44.6757C163.458 47.0954 162.827 49.3229 161.322 50.9432C159.806 52.5747 157.4 53.5875 154.775 53.4933L14.9618 48.4807Z" stroke="#FFFEFE"/>
<path d="M164.756 83.9297C160.272 91.2952 150.263 96.8294 136.171 100.514C122.106 104.192 104.079 105.999 83.7086 106C64.3162 105.331 46.5621 102.391 32.5363 97.6206C18.4846 92.8409 8.27303 86.2569 3.82569 78.372C2.5721 76.1495 3.00536 74.0123 4.39851 72.4185C5.80922 70.8047 8.21087 69.7538 10.8354 69.8443L157.903 74.9112C160.527 75.0016 162.913 76.2193 164.296 77.933C165.663 79.6256 166.055 81.7943 164.756 83.9297Z" stroke="black"/>
<path d="M164.27 63.0347C164.264 63.6987 163.843 64.4275 162.828 65.2019C161.82 65.9703 160.307 66.7203 158.312 67.4342C154.328 68.8599 148.54 70.1004 141.356 71.0895C126.998 73.0667 107.158 74.0273 85.2439 73.4981C63.3297 72.9689 43.5132 71.0506 29.1929 68.3809C22.0287 67.0453 16.2632 65.5258 12.3035 63.9082C10.3211 63.0984 8.82054 62.2755 7.82618 61.4588C6.82391 60.6357 6.41471 59.8868 6.42013 59.2229C6.42555 58.5589 6.84682 57.8301 7.86213 57.0556C8.86943 56.2873 10.3828 55.5372 12.3777 54.8234C16.3622 53.3977 22.1503 52.1572 29.3334 51.168C43.6917 49.1909 63.5316 48.2302 85.4459 48.7594C107.36 49.2886 127.177 51.2069 141.497 53.8766C148.661 55.2122 154.427 56.7318 158.386 58.3493C160.369 59.1592 161.869 59.9821 162.864 60.7987C163.866 61.6219 164.275 62.3708 164.27 63.0347Z" fill="white" stroke="black"/>
<path d="M69.5 17.5C69.5 20.8648 68.5717 23.8889 67.0969 26.0577C65.6204 28.2291 63.6326 29.5 61.5 29.5C59.3674 29.5 57.3796 28.2291 55.9031 26.0577C54.4283 23.8889 53.5 20.8648 53.5 17.5C53.5 14.1352 54.4283 11.1111 55.9031 8.94232C57.3796 6.77091 59.3674 5.5 61.5 5.5C63.6326 5.5 65.6204 6.77091 67.0969 8.94232C68.5717 11.1111 69.5 14.1352 69.5 17.5Z" fill="#FFFEFE" stroke="black"/>
<path d="M112.5 17.5C112.5 20.8587 111.519 23.8788 109.958 26.0467C108.397 28.2153 106.284 29.5 104 29.5C101.716 29.5 99.6032 28.2153 98.0418 26.0467C96.4809 23.8788 95.5 20.8587 95.5 17.5C95.5 14.1413 96.4809 11.1212 98.0418 8.95332C99.6032 6.7847 101.716 5.5 104 5.5C106.284 5.5 108.397 6.7847 109.958 8.95332C111.519 11.1212 112.5 14.1413 112.5 17.5Z" fill="#FFFEFE" stroke="#715959"/>
<ellipse cx="61.5" cy="21.5" rx="4.5" ry="8.5" fill="black"/>
<ellipse cx="104" cy="21.5" rx="5" ry="8.5" fill="black"/>
<path d="M79.2446 28.6523C81.6145 35.2397 86.6016 35.23 89.9132 28.4031" stroke="black" stroke-width="3" stroke-linecap="round"/>
</svg>
